<?xml version="1.0" encoding="utf-8"?>
<!-- Generator: Adobe Illustrator 26.3.1, SVG Export Plug-In . SVG Version: 6.00 Build 0)  -->
<svg version="1.1" id="Layer_1" xmlns="http://www.w3.org/2000/svg" xmlns:xlink="http://www.w3.org/1999/xlink" x="0px" y="0px"
	 viewBox="0 0 50 35.7" style="enable-background:new 0 0 50 35.7;" xml:space="preserve">
<style type="text/css">
	.st0{fill:#6200EA;}
</style>
<g id="Layer_13">
	<path class="st0" d="M50,1.8c0,1-0.8,1.8-1.8,1.8H1.8C0.8,3.6,0,2.8,0,1.8S0.8,0,1.8,0h46.4C49.2,0,50,0.8,50,1.8z M41.1,16.1H1.8
		c-1,0-1.8,0.8-1.8,1.8s0.8,1.8,1.8,1.8h39.3c1,0,1.8-0.8,1.8-1.8S42.1,16.1,41.1,16.1z M25,32.1H1.8c-1,0-1.8,0.8-1.8,1.8
		s0.8,1.8,1.8,1.8H25c1,0,1.8-0.8,1.8-1.8S26,32.1,25,32.1z"/>
</g>
</svg>
